<svg xmlns="http://www.w3.org/2000/svg" width="92.857" height="100" viewBox="0 0 92.857 100">
  <g id="Visibility" transform="translate(-68 -742)">
    <path id="Path_10874" data-name="Path 10874" d="M157.286,772.982a52.068,52.068,0,0,0-17.411-13.322c-1.161-.571-2.321-1.089-3.518-1.554a59.371,59.371,0,0,0-20.143-4.089c-.589-.018-1.2-.018-1.786-.018s-1.2,0-1.786.018A59.371,59.371,0,0,0,92.5,758.107c-1.2.464-2.357.982-3.518,1.554a52.068,52.068,0,0,0-17.411,13.322,14.659,14.659,0,0,0,0,19.178,52.068,52.068,0,0,0,17.411,13.322c1.161.571,2.321,1.089,3.518,1.553a59.371,59.371,0,0,0,20.143,4.089c.589.018,1.2.018,1.786.018s1.2,0,1.786-.018a59.371,59.371,0,0,0,20.143-4.089c1.2-.464,2.357-.982,3.518-1.553a52.068,52.068,0,0,0,17.411-13.322,14.659,14.659,0,0,0,0-19.178Zm-2.714,16.857A48.88,48.88,0,0,1,136.286,803.2c-.161.071-.339.143-.5.214a56.893,56.893,0,0,1-42.714,0c-.161-.071-.339-.143-.5-.214a48.88,48.88,0,0,1-18.286-13.357,11.087,11.087,0,0,1,0-14.536,48.879,48.879,0,0,1,18.286-13.357c.161-.072.339-.143.5-.214a56.893,56.893,0,0,1,42.714,0c.161.071.339.143.5.214A48.879,48.879,0,0,1,154.571,775.3a11.087,11.087,0,0,1,0,14.536Z" transform="translate(0 9.429)" fill="#231f20"/>
    <path id="Path_10875" data-name="Path 10875" d="M153,773.732a48.879,48.879,0,0,0-18.286-13.357,1.766,1.766,0,0,1-.5-.214,56.893,56.893,0,0,0-42.714,0,1.766,1.766,0,0,1-.5.214,48.879,48.879,0,0,0-18.286,13.357,11.087,11.087,0,0,0,0,14.536A48.88,48.88,0,0,0,91,801.625a1.371,1.371,0,0,1,.5.214,56.893,56.893,0,0,0,42.714,0,1.371,1.371,0,0,1,.5-.214A48.88,48.88,0,0,0,153,788.268a11.087,11.087,0,0,0,0-14.536Zm-40.143,28.7A21.429,21.429,0,1,1,134.286,781,21.423,21.423,0,0,1,112.857,802.429Z" transform="translate(1.571 11)" fill="#231f20" opacity="0.5"/>
    <g id="Group_2204" data-name="Group 2204" transform="translate(109.071 777.714)">
      <path id="Path_10876" data-name="Path 10876" d="M104.75,787a2.951,2.951,0,0,1-.707-.07,4.052,4.052,0,0,1-2.739-1.784,7.864,7.864,0,0,0-6.571-3.5H92.786A1.785,1.785,0,0,1,91,779.857V769.143a1.785,1.785,0,0,1,1.786-1.786h1.946a7.869,7.869,0,0,0,6.582-3.521,4.038,4.038,0,0,1,2.729-1.766,2.946,2.946,0,0,1,.707-.07,4.111,4.111,0,0,1,4.107,4.107v16.786A4.111,4.111,0,0,1,104.75,787Zm.209-3.52h0Zm-10.387-5.409h.161a11.429,11.429,0,0,1,9.559,5.121.5.5,0,0,0,.363.218.883.883,0,0,1,.1.016.537.537,0,0,0,.536-.534V766.107a.529.529,0,0,0-.525-.536c-.036.007-.071.014-.107.018a.489.489,0,0,0-.35.2,11.44,11.44,0,0,1-9.571,5.139h-.161Zm10.179-14.286-.059,1.786a.391.391,0,0,0,.059-.005Zm.212,1.734h0Zm-.552-1.7h0Z" transform="translate(-91 -762)" fill="#231f20"/>
    </g>
    <path id="Path_10877" data-name="Path 10877" d="M96.714,765H93.143a7.143,7.143,0,0,0,0,14.286h3.571A1.791,1.791,0,0,0,98.5,777.5V766.786A1.791,1.791,0,0,0,96.714,765Zm-1.786,10.714H93.143a3.571,3.571,0,1,1,0-7.143h1.786Z" transform="translate(14.143 18.071)" fill="#231f20"/>
    <path id="Path_10878" data-name="Path 10878" d="M93.357,767v7.143H91.571a3.571,3.571,0,1,1,0-7.143Z" transform="translate(15.714 19.643)" fill="coral"/>
    <g id="Group_2205" data-name="Group 2205" transform="translate(105.499 793.784)">
      <path id="Path_10879" data-name="Path 10879" d="M94.359,783.5a1.788,1.788,0,0,1-1.661-1.123l-3.571-8.929a1.786,1.786,0,1,1,3.318-1.325l3.571,8.929a1.783,1.783,0,0,1-1.657,2.448Z" transform="translate(-88.999 -770.999)" fill="#231f20"/>
    </g>
    <path id="Path_10880" data-name="Path 10880" d="M84.339,788.607a6.7,6.7,0,0,0-2.518-2.571A7,7,0,0,0,78.143,785a7.143,7.143,0,1,0,7.143,7.143A7.028,7.028,0,0,0,84.339,788.607Zm-6.2,7.107a3.571,3.571,0,1,1,2.018-6.518,3.69,3.69,0,0,1,1,1.036,3.517,3.517,0,0,1,.554,1.911A3.582,3.582,0,0,1,78.143,795.714Z" transform="translate(2.357 33.786)" fill="#231f20"/>
    <path id="Path_10881" data-name="Path 10881" d="M80.143,790.571a3.572,3.572,0,1,1-1.554-2.947,1.651,1.651,0,0,0,.411.643,2.125,2.125,0,0,0,.589.393A3.517,3.517,0,0,1,80.143,790.571Z" transform="translate(3.929 35.357)" fill="#231f20" opacity="0.5"/>
    <path id="Path_10882" data-name="Path 10882" d="M116.143,785a6.933,6.933,0,0,0-3.607,1A6.652,6.652,0,0,0,110,788.536a6.933,6.933,0,0,0-1,3.607A7.143,7.143,0,1,0,116.143,785Zm0,10.714a3.582,3.582,0,0,1-3.571-3.571,3.6,3.6,0,0,1,3.571-3.571,3.571,3.571,0,1,1,0,7.143Z" transform="translate(32.214 33.786)" fill="#231f20"/>
    <path id="Path_10883" data-name="Path 10883" d="M118.143,790.571a3.571,3.571,0,0,1-7.143,0A3.6,3.6,0,0,1,114.571,787,3.582,3.582,0,0,1,118.143,790.571Z" transform="translate(33.786 35.357)" fill="#231f20" opacity="0.5"/>
    <path id="Path_10884" data-name="Path 10884" d="M78.143,747a7.143,7.143,0,1,0,0,14.286,7.027,7.027,0,0,0,3.536-.946,6.7,6.7,0,0,0,2.571-2.518,7,7,0,0,0,1.036-3.679A7.141,7.141,0,0,0,78.143,747Zm-3.571,7.143a3.571,3.571,0,0,1,7.143,0,3.527,3.527,0,0,1-.857,2.3,2.638,2.638,0,0,1-.446.446.139.139,0,0,0-.071.071,3.624,3.624,0,0,1-2.2.75A3.582,3.582,0,0,1,74.571,754.143Z" transform="translate(2.357 3.929)" fill="#231f20"/>
    <path id="Path_10885" data-name="Path 10885" d="M80.143,752.571a3.527,3.527,0,0,1-.857,2.3,1.8,1.8,0,0,0-.286.232.842.842,0,0,0-.161.214.139.139,0,0,0-.071.071,3.624,3.624,0,0,1-2.2.75,3.571,3.571,0,1,1,3.571-3.571Z" transform="translate(3.929 5.5)" fill="#908e8f"/>
    <path id="Path_10886" data-name="Path 10886" d="M116.143,747A7.141,7.141,0,0,0,109,754.143a7.167,7.167,0,0,0,7.143,7.143,7.143,7.143,0,1,0,0-14.286Zm0,10.714a3.624,3.624,0,0,1-2.2-.75.139.139,0,0,0-.071-.071,2.638,2.638,0,0,1-.446-.446,3.527,3.527,0,0,1-.857-2.3,3.571,3.571,0,1,1,3.571,3.571Z" transform="translate(32.214 3.929)" fill="#231f20"/>
    <path id="Path_10887" data-name="Path 10887" d="M118.143,752.571a3.582,3.582,0,0,1-3.571,3.571,3.624,3.624,0,0,1-2.2-.75.139.139,0,0,0-.071-.071.842.842,0,0,0-.161-.214,1.8,1.8,0,0,0-.286-.232,3.527,3.527,0,0,1-.857-2.3,3.571,3.571,0,0,1,7.143,0Z" transform="translate(33.786 5.5)" fill="#908e8f"/>
    <path id="Path_10888" data-name="Path 10888" d="M98.929,790.232a6.983,6.983,0,0,0-3.571,0,7.143,7.143,0,1,0,3.571,0Zm-1.786,10.482a3.571,3.571,0,1,1,3.571-3.571A3.582,3.582,0,0,1,97.143,800.714Z" transform="translate(17.286 37.714)" fill="#231f20"/>
    <circle id="Ellipse_913" data-name="Ellipse 913" cx="3.571" cy="3.571" r="3.571" transform="translate(110.857 831.286)" fill="#231f20" opacity="0.5"/>
    <path id="Path_10889" data-name="Path 10889" d="M97.143,742a7.14,7.14,0,0,0-1.786,14.054,6.987,6.987,0,0,0,3.571,0A7.14,7.14,0,0,0,97.143,742Zm0,10.714a3.571,3.571,0,1,1,3.571-3.571A3.582,3.582,0,0,1,97.143,752.714Z" transform="translate(17.286)" fill="#231f20"/>
    <circle id="Ellipse_914" data-name="Ellipse 914" cx="3.571" cy="3.571" r="3.571" transform="translate(110.857 745.571)" fill="#908e8f"/>
    <g id="Group_2206" data-name="Group 2206" transform="translate(112.643 817)" opacity="0.5">
      <path id="Path_10890" data-name="Path 10890" d="M94.786,798.286A1.785,1.785,0,0,1,93,796.5V785.786a1.786,1.786,0,0,1,3.571,0V796.5A1.785,1.785,0,0,1,94.786,798.286Z" transform="translate(-93 -784)" fill="#231f20"/>
    </g>
    <g id="Group_2208" data-name="Group 2208" transform="translate(82.409 760.088)" opacity="0.5">
      <path id="Path_10892" data-name="Path 10892" d="M86.946,763.023a1.9,1.9,0,0,1-.214.179h-.018l-.054.053c-.054.018-.125.054-.179.072-.107.053-.214.089-.321.143a.16.16,0,0,1-.089.018,1.485,1.485,0,0,1-.393.054,1.829,1.829,0,0,1-1.268-.518l-1.857-1.857L77.7,756.309l-.018-.018L76.589,755.2a1.837,1.837,0,0,1-.232-2.268.139.139,0,0,1,.071-.071.842.842,0,0,1,.161-.214,1.794,1.794,0,0,1,2.536,0l1.143,1.143,5.8,5.821.875.875A1.768,1.768,0,0,1,86.946,763.023Z" transform="translate(-76.069 -752.129)" fill="#231f20"/>
    </g>
    <g id="Group_2209" data-name="Group 2209" transform="translate(134.978 812.554)" opacity="0.5">
      <path id="Path_10893" data-name="Path 10893" d="M116.369,792.367a1.811,1.811,0,0,1-2.536,0l-1.089-1.089-6.714-6.714a1.793,1.793,0,0,1,.286-2.768c.161-.071.339-.143.5-.214a1.775,1.775,0,0,1,1.75.446l7.8,7.8A1.8,1.8,0,0,1,116.369,792.367Z" transform="translate(-105.507 -781.51)" fill="#231f20"/>
    </g>
    <g id="Group_2210" data-name="Group 2210" transform="translate(82.41 812.732)" opacity="0.5">
      <path id="Path_10894" data-name="Path 10894" d="M86.946,784.681,79.124,792.5a1.829,1.829,0,0,1-1.268.518,1.761,1.761,0,0,1-.679-.125,2.125,2.125,0,0,1-.589-.393,1.651,1.651,0,0,1-.411-.643,1.855,1.855,0,0,1,.411-1.911l1.089-1.089.161-.161,4.732-4.732.143-.143,1.7-1.7a1.775,1.775,0,0,1,1.75-.446c.161.071.339.143.5.214a1.8,1.8,0,0,1,.286,2.786Z" transform="translate(-76.069 -781.61)" fill="#231f20"/>
    </g>
    <g id="Group_2211" data-name="Group 2211" transform="translate(135.036 760.088)" opacity="0.5">
      <path id="Path_10895" data-name="Path 10895" d="M116.433,755.2l-5.964,5.964-.018.018-1.839,1.839a1.829,1.829,0,0,1-1.268.518,1.485,1.485,0,0,1-.393-.054.16.16,0,0,1-.089-.018c-.107-.053-.214-.089-.321-.143-.054-.018-.125-.054-.179-.072l-.054-.053h-.018a1.9,1.9,0,0,1-.214-.179,1.768,1.768,0,0,1,0-2.536l.857-.875,5.821-5.8.054-.054,1.089-1.107a1.794,1.794,0,0,1,2.536,0,.842.842,0,0,1,.161.214.139.139,0,0,1,.071.071A1.837,1.837,0,0,1,116.433,755.2Z" transform="translate(-105.54 -752.129)" fill="#231f20"/>
    </g>
  </g>
</svg>
