<svg xmlns="http://www.w3.org/2000/svg" width="100" height="100" viewBox="0 0 100 100">
  <g id="Target_audience" data-name="Target audience" transform="translate(-194 -102)">
    <g id="Group_2292" data-name="Group 2292" transform="translate(220.786 128.786)">
      <path id="Path_11214" data-name="Path 11214" d="M255.357,138.428A23.2,23.2,0,0,0,234,117.089a17.913,17.913,0,0,0-3.572,0,23.168,23.168,0,0,0-21.339,21.339,14.747,14.747,0,0,0-.089,1.786c0,.607.018,1.2.071,1.786a23.237,23.237,0,0,0,21.357,21.375c.589.036,1.179.053,1.786.053s1.2-.018,1.786-.053A23.237,23.237,0,0,0,255.357,142c.054-.589.071-1.179.071-1.786S255.411,139.018,255.357,138.428Zm-10.178,16.536c-.232.214-.482.429-.732.625a19.689,19.689,0,0,1-24.482,0c-.25-.2-.482-.393-.714-.607a19.653,19.653,0,1,1,25.929-.018Z" transform="translate(-209 -117)" fill="#231f20"/>
    </g>
    <path id="Path_11215" data-name="Path 11215" d="M268.232,142.357a32.149,32.149,0,0,0-30.3-30.3c-.589-.036-1.178-.054-1.786-.054s-1.2.018-1.786.054a32.149,32.149,0,0,0-30.3,30.3c-.036.589-.054,1.179-.054,1.786,0,.589.018,1.2.054,1.786a31.993,31.993,0,0,0,12.054,23.357,31.536,31.536,0,0,0,18.25,6.946c.589.036,1.179.054,1.786.054s1.2-.018,1.786-.054a31.537,31.537,0,0,0,18.25-6.946,31.994,31.994,0,0,0,12.053-23.357c.036-.589.053-1.2.053-1.786C268.286,143.536,268.268,142.946,268.232,142.357ZM253.947,166.5a28.107,28.107,0,0,1-16.018,6.161c-.589.036-1.2.054-1.786.054s-1.2-.018-1.786-.054a28.106,28.106,0,0,1-16.018-6.161,28.405,28.405,0,0,1-10.7-20.571c-.054-.589-.071-1.179-.071-1.786s.018-1.2.053-1.786a28.618,28.618,0,0,1,26.732-26.732c.589-.036,1.179-.053,1.786-.053s1.2.018,1.786.053a28.618,28.618,0,0,1,26.732,26.732c.036.589.054,1.179.054,1.786s-.018,1.2-.072,1.786A28.406,28.406,0,0,1,253.947,166.5Z" transform="translate(7.857 7.857)" fill="#231f20"/>
    <path id="Path_11216" data-name="Path 11216" d="M250.286,138.643a19.537,19.537,0,0,1-6.678,14.75l-.143-.678a13.091,13.091,0,0,0-12.822-10.5,7.141,7.141,0,0,0,7.143-7.143V131.5a7.143,7.143,0,0,0-14.286,0v3.572a7.141,7.141,0,0,0,7.143,7.143,13.078,13.078,0,0,0-12.821,10.5l-.143.7a19.646,19.646,0,1,1,32.607-14.768Z" transform="translate(13.357 13.357)" fill="coral"/>
    <path id="Path_11217" data-name="Path 11217" d="M245.714,105a10.714,10.714,0,1,0,10.714,10.714A10.723,10.723,0,0,0,245.714,105Zm0,17.857a7.143,7.143,0,1,1,7.143-7.143A7.141,7.141,0,0,1,245.714,122.857Z" transform="translate(32.214 2.357)" fill="#231f20"/>
    <circle id="Ellipse_924" data-name="Ellipse 924" cx="7.143" cy="7.143" r="7.143" transform="translate(270.786 110.929)" fill="#231f20" opacity="0.5"/>
    <path id="Path_11218" data-name="Path 11218" d="M245.714,143a10.714,10.714,0,1,0,10.714,10.714A10.723,10.723,0,0,0,245.714,143Zm0,17.857a7.143,7.143,0,1,1,7.143-7.143A7.141,7.141,0,0,1,245.714,160.857Z" transform="translate(32.214 32.214)" fill="#231f20"/>
    <circle id="Ellipse_925" data-name="Ellipse 925" cx="7.143" cy="7.143" r="7.143" transform="translate(270.786 178.786)" fill="#231f20" opacity="0.5"/>
    <path id="Path_11219" data-name="Path 11219" d="M207.714,143a10.714,10.714,0,1,0,10.714,10.714A10.723,10.723,0,0,0,207.714,143Zm0,17.857a7.143,7.143,0,1,1,7.143-7.143A7.141,7.141,0,0,1,207.714,160.857Z" transform="translate(2.357 32.214)" fill="#231f20"/>
    <circle id="Ellipse_926" data-name="Ellipse 926" cx="7.143" cy="7.143" r="7.143" transform="translate(202.929 178.786)" fill="#231f20" opacity="0.5"/>
    <g id="Group_2293" data-name="Group 2293" transform="translate(199.357 107.357)">
      <path id="Path_11220" data-name="Path 11220" d="M207.714,126.429a10.714,10.714,0,1,1,10.714-10.714A10.725,10.725,0,0,1,207.714,126.429Zm0-17.857a7.143,7.143,0,1,0,7.143,7.143A7.15,7.15,0,0,0,207.714,108.572Z" transform="translate(-197 -105)" fill="#231f20"/>
    </g>
    <path id="Path_11221" data-name="Path 11221" d="M207.714,105a10.714,10.714,0,1,0,10.714,10.714A10.723,10.723,0,0,0,207.714,105Zm0,17.857a7.143,7.143,0,1,1,7.143-7.143A7.141,7.141,0,0,1,207.714,122.857Z" transform="translate(2.357 2.357)" fill="#231f20"/>
    <circle id="Ellipse_927" data-name="Ellipse 927" cx="7.143" cy="7.143" r="7.143" transform="translate(202.929 110.929)" fill="#231f20" opacity="0.5"/>
    <g id="Group_2294" data-name="Group 2294" transform="translate(223.036 195.411)" opacity="0.5">
      <path id="Path_11222" data-name="Path 11222" d="M210.26,154.31" transform="translate(-210.26 -154.31)" fill="none" stroke="#231f20" stroke-linecap="round" stroke-linejoin="round" stroke-width="2"/>
    </g>
    <g id="Group_2295" data-name="Group 2295" transform="translate(264.964 108.589)" opacity="0.5">
      <path id="Path_11223" data-name="Path 11223" d="M233.74,105.69" transform="translate(-233.74 -105.69)" fill="none" stroke="#231f20" stroke-linecap="round" stroke-linejoin="round" stroke-width="2"/>
    </g>
    <g id="Group_2296" data-name="Group 2296" transform="translate(287.411 172.964)" opacity="0.5">
      <path id="Path_11224" data-name="Path 11224" d="M246.31,141.74" transform="translate(-246.31 -141.74)" fill="none" stroke="#231f20" stroke-linecap="round" stroke-linejoin="round" stroke-width="2"/>
    </g>
    <g id="Group_2297" data-name="Group 2297" transform="translate(282 123.019)" opacity="0.5">
      <path id="Path_11225" data-name="Path 11225" d="M246.537,114.543a1.786,1.786,0,0,0-2.943,2.025,45.971,45.971,0,0,1,8.114,26.184,1.786,1.786,0,1,0,3.571,0A49.534,49.534,0,0,0,246.537,114.543Z" transform="translate(-243.28 -113.771)" fill="#231f20"/>
      <path id="Path_11226" data-name="Path 11226" d="M247.938,140.788A1.785,1.785,0,0,0,246.384,144a2.016,2.016,0,0,0,.786.178,1.8,1.8,0,0,0,1.607-1.018A1.773,1.773,0,0,0,247.938,140.788Z" transform="translate(-241.634 -92.682)" fill="#231f20"/>
      <path id="Path_11227" data-name="Path 11227" d="M249.136,136.964a1.782,1.782,0,1,0-1.036,3.411,1.658,1.658,0,0,0,.518.089,1.811,1.811,0,0,0,1.714-1.268A1.792,1.792,0,0,0,249.136,136.964Z" transform="translate(-240.493 -95.608)" fill="#231f20"/>
      <path id="Path_11228" data-name="Path 11228" d="M249.746,133.009a1.774,1.774,0,0,0-2.018,1.5,1.815,1.815,0,0,0,1.5,2.036c.089,0,.178.018.268.018a1.786,1.786,0,0,0,.25-3.554Z" transform="translate(-239.799 -98.67)" fill="#231f20"/>
    </g>
    <g id="Group_2298" data-name="Group 2298" transform="translate(200.589 131.036)">
      <path id="Path_11229" data-name="Path 11229" d="M197.69,118.26" transform="translate(-197.69 -118.26)" fill="none" stroke="#231f20" stroke-linecap="round" stroke-linejoin="round" stroke-width="2"/>
    </g>
    <g id="Group_2299" data-name="Group 2299" transform="translate(194 102)" opacity="0.5">
      <path id="Path_11230" data-name="Path 11230" d="M251.571,152.053a1.787,1.787,0,0,0-2.484-.459,45.972,45.972,0,0,1-26.184,8.114c-.045,0-.082.021-.125.025s-.081-.025-.125-.025a1.786,1.786,0,1,0-.036,3.571h.018c.046,0,.087-.023.134-.027s.088.027.134.027a49.535,49.535,0,0,0,28.209-8.743A1.786,1.786,0,0,0,251.571,152.053Z" transform="translate(-172.904 -63.28)" fill="#231f20"/>
      <path id="Path_11231" data-name="Path 11231" d="M211.833,153.49a1.789,1.789,0,1,0-1.572,3.214,1.744,1.744,0,0,0,.786.178,1.787,1.787,0,0,0,.786-3.393Z" transform="translate(-182.011 -61.686)" fill="#231f20"/>
      <path id="Path_11232" data-name="Path 11232" d="M218.926,155.71a1.781,1.781,0,0,0-.554,3.518,1.39,1.39,0,0,0,.286.036,1.788,1.788,0,0,0,.268-3.554Z" transform="translate(-176.033 -59.817)" fill="#231f20"/>
      <path id="Path_11233" data-name="Path 11233" d="M215.289,154.865a1.785,1.785,0,0,0-1.053,3.411,1.748,1.748,0,0,0,.518.089,1.811,1.811,0,0,0,1.714-1.268A1.788,1.788,0,0,0,215.289,154.865Z" transform="translate(-179.093 -60.525)" fill="#231f20"/>
      <path id="Path_11234" data-name="Path 11234" d="M235.8,105.2a1.719,1.719,0,0,0,.225-.143,1.753,1.753,0,0,0,.2-.305,1.6,1.6,0,0,0,0-1.921,1.973,1.973,0,0,0-.2-.309,1.73,1.73,0,0,0-.234-.15,1.785,1.785,0,0,0-.441-.248,1.726,1.726,0,0,0-.52-.105c-.025,0-.046-.014-.073-.014a49.524,49.524,0,0,0-28.209,8.745,1.785,1.785,0,0,0,2.025,2.941,45.974,45.974,0,0,1,26.184-8.114A1.747,1.747,0,0,0,235.8,105.2Z" transform="translate(-184.752 -102)" fill="#231f20"/>
      <path id="Path_11235" data-name="Path 11235" d="M230.233,106.685a1.873,1.873,0,0,0,.536.089,1.814,1.814,0,1,0-.536-.089Z" transform="translate(-166.519 -101.06)" fill="#231f20"/>
      <path id="Path_11236" data-name="Path 11236" d="M226.56,105.854a1.267,1.267,0,0,0,.25.018,1.773,1.773,0,1,0-.25-.018Z" transform="translate(-169.614 -101.765)" fill="#231f20"/>
      <path id="Path_11237" data-name="Path 11237" d="M234.526,108.259a1.878,1.878,0,0,0,1.268-.518,1.844,1.844,0,0,0,.518-1.268,1.877,1.877,0,0,0-.518-1.268,1.847,1.847,0,0,0-2.536,0,1.786,1.786,0,0,0,1.268,3.054Z" transform="translate(-163.561 -99.884)" fill="#231f20"/>
      <path id="Path_11238" data-name="Path 11238" d="M197.572,130.9c0-.048-.023-.087-.027-.134s.027-.086.027-.134a1.786,1.786,0,0,0-3.572-.018c0,.052.025.095.029.145s-.029.091-.029.141a49.534,49.534,0,0,0,8.743,28.209,1.786,1.786,0,1,0,2.943-2.025A45.972,45.972,0,0,1,197.572,130.9Z" transform="translate(-194 -80.904)" fill="#231f20"/>
      <path id="Path_11239" data-name="Path 11239" d="M196.473,124.468a1.647,1.647,0,0,0,.518.072,1.78,1.78,0,0,0,.536-3.482,1.767,1.767,0,0,0-2.232,1.179A1.8,1.8,0,0,0,196.473,124.468Z" transform="translate(-193.044 -87.093)" fill="#231f20"/>
      <path id="Path_11240" data-name="Path 11240" d="M195.823,128.408a1.382,1.382,0,0,0,.268.036,1.788,1.788,0,1,0-1.768-2.071h.018A1.769,1.769,0,0,0,195.823,128.408Z" transform="translate(-193.751 -84.033)" fill="#231f20"/>
      <path id="Path_11241" data-name="Path 11241" d="M197.691,120.654a1.743,1.743,0,0,0,.786.179,1.783,1.783,0,1,0-.786-.179Z" transform="translate(-191.887 -90.011)" fill="#231f20"/>
    </g>
    <g id="Group_2300" data-name="Group 2300" transform="translate(242.214 116.286)">
      <path id="Path_11242" data-name="Path 11242" d="M222.786,126.071A1.786,1.786,0,0,1,221,124.286v-12.5a1.786,1.786,0,0,1,3.572,0v12.5A1.786,1.786,0,0,1,222.786,126.071Z" transform="translate(-221 -110)" fill="#231f20"/>
    </g>
    <g id="Group_2301" data-name="Group 2301" transform="translate(242.214 116.286)">
      <path id="Path_11243" data-name="Path 11243" d="M222.786,126.071A1.786,1.786,0,0,1,221,124.286v-12.5a1.786,1.786,0,0,1,3.572,0v12.5A1.786,1.786,0,0,1,222.786,126.071Z" transform="translate(-221 -110)" fill="#231f20"/>
    </g>
    <g id="Group_2302" data-name="Group 2302" transform="translate(242.214 171.643)">
      <path id="Path_11244" data-name="Path 11244" d="M222.786,157.072A1.786,1.786,0,0,1,221,155.286v-12.5a1.786,1.786,0,1,1,3.572,0v12.5A1.786,1.786,0,0,1,222.786,157.072Z" transform="translate(-221 -141)" fill="#231f20"/>
    </g>
    <g id="Group_2303" data-name="Group 2303" transform="translate(208.286 150.214)">
      <path id="Path_11245" data-name="Path 11245" d="M216.286,132.572h-12.5a1.786,1.786,0,0,1,0-3.572h12.5a1.786,1.786,0,0,1,0,3.572Z" transform="translate(-202 -129)" fill="#231f20"/>
    </g>
    <g id="Group_2304" data-name="Group 2304" transform="translate(208.286 150.214)">
      <path id="Path_11246" data-name="Path 11246" d="M216.286,132.572h-12.5a1.786,1.786,0,0,1,0-3.572h12.5a1.786,1.786,0,0,1,0,3.572Z" transform="translate(-202 -129)" fill="#231f20"/>
    </g>
    <g id="Group_2305" data-name="Group 2305" transform="translate(263.643 150.214)">
      <path id="Path_11247" data-name="Path 11247" d="M247.286,132.572h-12.5a1.786,1.786,0,0,1,0-3.572h12.5a1.786,1.786,0,1,1,0,3.572Z" transform="translate(-233 -129)" fill="#231f20"/>
    </g>
  </g>
</svg>
