<svg xmlns="http://www.w3.org/2000/svg" xmlns:xlink="http://www.w3.org/1999/xlink" width="834.685" height="721.664" viewBox="0 0 834.685 721.664">
  <defs>
    <clipPath id="clip-path">
      <path id="Path_180" data-name="Path 180" d="M5947.157,2228.789c4.267-31.516.989-63.553,2.827-95.3s9.778-64.986,32.135-87.6c21.547-21.8,53.655-30.448,84.295-29.856s60.452,9.414,89.823,18.164c32.81,9.774,66.782,20.183,92.282,43.029,17.1,15.319,29.248,35.268,41.142,54.907l36.44,60.167c12.4,20.47,25.15,42.052,26.332,65.956,2.37,47.942-41.815,87.782-43.36,135.757-.846,26.264,11.375,51.958,8.622,78.091-2.742,26.057-20.452,48.81-42.416,63.089s-47.87,21.174-73.605,26.077a572.462,572.462,0,0,1-122.388,9.9c-25.472-.684-55.4-5.982-66.5-28.922-8.31-17.17-3.044-39.53-14.512-54.774-10.092-13.416-28.787-15.79-44.662-21.246-31.132-10.7-56.1-37.785-64.24-69.685C5871.9,2328.069,5938.652,2291.61,5947.157,2228.789Z" transform="translate(-5886.473 -2016)" fill="#fff" stroke="#1a1a1a" stroke-linecap="round" stroke-linejoin="round" stroke-width="2"/>
    </clipPath>
  </defs>
  <g id="Group_2608" data-name="Group 2608" transform="translate(-1044.016 -195.49)">
    <path id="Path_3" data-name="Path 3" d="M379.738,50.567c-21.493,201.39-210.322,208.5-210.322,208.5V50.567Z" transform="translate(1400.262 621.604)" fill="#343434"/>
    <g id="Group_1735" data-name="Group 1735" transform="matrix(0.469, 0.883, -0.883, 0.469, 1730.928, -813.018)">
      <rect id="Rectangle_339" data-name="Rectangle 339" width="97" height="617.509" rx="48.5" transform="translate(838 572.127)" fill="#ffd1d1"/>
      <rect id="Rectangle_340" data-name="Rectangle 340" width="97" height="893.763" rx="48.5" transform="translate(1034 434)" fill="#ffd694"/>
      <rect id="Rectangle_341" data-name="Rectangle 341" width="97" height="617.509" rx="48.5" transform="translate(1230 572.127)" fill="#d9dbda"/>
    </g>
    <path id="Path_4" data-name="Path 4" d="M169.416,259.067C190.909,57.675,379.74,50.567,379.74,50.567v208.5Z" transform="translate(1014.821 174.934)" fill="coral"/>
    <g id="Group_32" data-name="Group 32" transform="translate(1251.267 242.969)">
      <path id="Path_176" data-name="Path 176" d="M5985.754,2149.73c-57.224,29.25-78.483,61.054-85.074,88.493-8.157,33.958,9.868,45.774,17.015,112.319,6.406,59.647-6.364,66.095,0,132.74,5.081,53.211,7.633,79.939,25.522,103.81,38.526,51.41,118.52,49.973,153.135,49.352,11.222-.2,211.771-6.4,255.223-134.442,24.993-73.648-16.058-146.15-30.626-171.882C6229.626,2168.832,6016.133,2151.715,5985.754,2149.73Z" transform="translate(-5885.818 -2090.219)" fill="none" stroke="#1a1a1a" stroke-linecap="round" stroke-linejoin="round" stroke-width="3"/>
      <ellipse id="Ellipse_18" data-name="Ellipse 18" cx="12.112" cy="12.114" rx="12.112" ry="12.114" transform="translate(492.102 314.317)" fill="#1a1a1a" stroke="#1a1a1a" stroke-linecap="round" stroke-linejoin="round" stroke-width="2"/>
      <ellipse id="Ellipse_19" data-name="Ellipse 19" cx="12.112" cy="12.114" rx="12.112" ry="12.114" transform="translate(80.921 468.152)" fill="#1a1a1a" stroke="#1a1a1a" stroke-linecap="round" stroke-linejoin="round" stroke-width="2"/>
      <path id="Path_177" data-name="Path 177" d="M5947.157,2228.789c4.267-31.516.989-63.553,2.827-95.3s9.778-64.986,32.135-87.6c21.547-21.8,53.655-30.448,84.295-29.856s60.452,9.414,89.823,18.164c32.81,9.774,66.782,20.183,92.282,43.029,17.1,15.319,29.248,35.268,41.142,54.907l36.44,60.167c12.4,20.47,25.15,42.052,26.332,65.956,2.37,47.942-41.815,87.782-43.36,135.757-.846,26.264,11.375,51.958,8.622,78.091-2.742,26.057-20.452,48.81-42.416,63.089s-47.87,21.174-73.605,26.077a572.462,572.462,0,0,1-122.388,9.9c-25.472-.684-55.4-5.982-66.5-28.922-8.31-17.17-3.044-39.53-14.512-54.774-10.092-13.416-28.787-15.79-44.662-21.246-31.132-10.7-56.1-37.785-64.24-69.685C5871.9,2328.069,5938.652,2291.61,5947.157,2228.789Z" transform="translate(-5879.085 -2016)" fill="#1a1a1a" stroke="#1a1a1a" stroke-linecap="round" stroke-linejoin="round" stroke-width="2"/>
      <g id="Group_25" data-name="Group 25" transform="translate(7.388)">
        <path id="Path_178" data-name="Path 178" d="M5947.157,2228.789c4.267-31.516.989-63.553,2.827-95.3s9.778-64.986,32.135-87.6c21.547-21.8,53.655-30.448,84.295-29.856s60.452,9.414,89.823,18.164c32.81,9.774,66.782,20.183,92.282,43.029,17.1,15.319,29.248,35.268,41.142,54.907l36.44,60.167c12.4,20.47,25.15,42.052,26.332,65.956,2.37,47.942-41.815,87.782-43.36,135.757-.846,26.264,11.375,51.958,8.622,78.091-2.742,26.057-20.452,48.81-42.416,63.089s-47.87,21.174-73.605,26.077a572.462,572.462,0,0,1-122.388,9.9c-25.472-.684-55.4-5.982-66.5-28.922-8.31-17.17-3.044-39.53-14.512-54.774-10.092-13.416-28.787-15.79-44.662-21.246-31.132-10.7-56.1-37.785-64.24-69.685C5871.9,2328.069,5938.652,2291.61,5947.157,2228.789Z" transform="translate(-5886.473 -2016)" fill="#fff"/>
        <g id="Group_24" data-name="Group 24" clip-path="url(#clip-path)">
          <path id="Path_179" data-name="Path 179" d="M5835.721,2771.664s16.937-68.593,81.671-58.55,123.392-7.211,176.026-23.311,116.267.035,158.978,57.754,8.7,87.435,30.248,108.313,29.493,23.192,29.493,23.192-29.97,56.682-52.417,69.161-303.762,4.539-303.762,4.539l-97.653-109.337Z" transform="translate(-5858.307 -2386.684)" fill="#d9dbda"/>
        </g>
        <path id="Path_181" data-name="Path 181" d="M5947.157,2228.789c4.267-31.516.989-63.553,2.827-95.3s9.778-64.986,32.135-87.6c21.547-21.8,53.655-30.448,84.295-29.856s60.452,9.414,89.823,18.164c32.81,9.774,66.782,20.183,92.282,43.029,17.1,15.319,29.248,35.268,41.142,54.907l36.44,60.167c12.4,20.47,25.15,42.052,26.332,65.956,2.37,47.942-41.815,87.782-43.36,135.757-.846,26.264,11.375,51.958,8.622,78.091-2.742,26.057-20.452,48.81-42.416,63.089s-47.87,21.174-73.605,26.077a572.462,572.462,0,0,1-122.388,9.9c-25.472-.684-55.4-5.982-66.5-28.922-8.31-17.17-3.044-39.53-14.512-54.774-10.092-13.416-28.787-15.79-44.662-21.246-31.132-10.7-56.1-37.785-64.24-69.685C5871.9,2328.069,5938.652,2291.61,5947.157,2228.789Z" transform="translate(-5886.473 -2016)" fill="none" stroke="#1a1a1a" stroke-linecap="round" stroke-linejoin="round" stroke-width="2"/>
      </g>
      <g id="Group_26" data-name="Group 26" transform="translate(95.213 136.413)">
        <path id="Path_182" data-name="Path 182" d="M6186.8,2509.672l-67.824,166.862h5.955l68.485-166.862Z" transform="translate(-6103.335 -2426.396)" fill="#fff" stroke="#1a1a1a" stroke-linecap="round" stroke-linejoin="round" stroke-width="2"/>
        <path id="Path_183" data-name="Path 183" d="M6111.726,2343.483l46.618,195.372-5.8-.211L6105.91,2343.22l133.662-3.278.079.4Z" transform="translate(-6096.083 -2332.197)" fill="#fff" stroke="#1a1a1a" stroke-linecap="round" stroke-linejoin="round" stroke-width="2"/>
        <path id="Path_184" data-name="Path 184" d="M6293.666,2543.913l-128.056-4.679-.011-.052-46.619-195.373,127.925-3.139,5.736-.139Z" transform="translate(-6103.337 -2332.525)" fill="#fff" stroke="#1a1a1a" stroke-linecap="round" stroke-linejoin="round" stroke-width="2"/>
        <path id="Path_185" data-name="Path 185" d="M6083.829,2324.459l148.783-1.92,2.268,7.743-147.463,3.281Z" transform="translate(-6083.829 -2322.54)" fill="#1a1a1a" stroke="#1a1a1a" stroke-linecap="round" stroke-linejoin="round" stroke-width="2"/>
        <path id="Path_186" data-name="Path 186" d="M6227.833,2410.715c0,9.318-8.6,16.878-19.223,16.878s-19.216-7.56-19.216-16.878,8.6-16.878,19.216-16.878a20.994,20.994,0,0,1,2.2.111,19.732,19.732,0,0,1,13.831,7.448A15.373,15.373,0,0,1,6227.833,2410.715Z" transform="translate(-6142.417 -2362.109)" fill="#fff" stroke="#1a1a1a" stroke-linecap="round" stroke-linejoin="round" stroke-width="2"/>
        <path id="Path_187" data-name="Path 187" d="M6248.608,2401.535l-16.031,9.319,2.2-16.766A19.727,19.727,0,0,1,6248.608,2401.535Z" transform="translate(-6166.382 -2362.247)" fill="#ffc3ac" stroke="#1a1a1a" stroke-linecap="round" stroke-linejoin="round" stroke-width="2"/>
        <path id="Path_188" data-name="Path 188" d="M6281.959,2538.528a15.029,15.029,0,0,1-1.467,6.473l-17.754-6.473,16.032-9.318A15.382,15.382,0,0,1,6281.959,2538.528Z" transform="translate(-6183.122 -2437.239)" fill="#fff" stroke="#1a1a1a" stroke-linecap="round" stroke-linejoin="round" stroke-width="2"/>
        <path id="Path_189" data-name="Path 189" d="M6240.972,2512.333l-2.2,16.767-15.362,10.134a15.5,15.5,0,0,1-3.856-10.134c0-9.323,8.605-16.878,19.218-16.878A21.088,21.088,0,0,1,6240.972,2512.333Z" transform="translate(-6159.154 -2427.811)" fill="#fff" stroke="#1a1a1a" stroke-linecap="round" stroke-linejoin="round" stroke-width="2"/>
        <path id="Path_190" data-name="Path 190" d="M6278.771,2519.92l-16.032,9.319,2.2-16.767A19.734,19.734,0,0,1,6278.771,2519.92Z" transform="translate(-6183.122 -2427.95)" fill="#ffc3ac" stroke="#1a1a1a" stroke-linecap="round" stroke-linejoin="round" stroke-width="2"/>
        <path id="Path_191" data-name="Path 191" d="M6312.13,2656.913a15.061,15.061,0,0,1-1.121,5.693l-18.1-5.693,16.03-9.318A15.373,15.373,0,0,1,6312.13,2656.913Z" transform="translate(-6199.867 -2502.942)" fill="#1a1a1a" stroke="#1a1a1a" stroke-linecap="round" stroke-linejoin="round" stroke-width="2"/>
        <path id="Path_192" data-name="Path 192" d="M6281.86,2659.982a20.705,20.705,0,0,1-12.919,4.38c-10.613,0-19.219-7.559-19.219-16.877s8.605-16.878,19.219-16.878a21.041,21.041,0,0,1,2.2.111l-2.2,16.767Z" transform="translate(-6175.897 -2493.514)" fill="#fff" stroke="#1a1a1a" stroke-linecap="round" stroke-linejoin="round" stroke-width="2"/>
        <path id="Path_193" data-name="Path 193" d="M6308.939,2638.3l-16.03,9.319,2.2-16.767A19.723,19.723,0,0,1,6308.939,2638.3Z" transform="translate(-6199.867 -2493.653)" fill="#ffc3ac" stroke="#1a1a1a" stroke-linecap="round" stroke-linejoin="round" stroke-width="2"/>
        <path id="Path_194" data-name="Path 194" d="M6311.009,2674.227a17,17,0,0,1-5.18,6.8l-12.92-12.5Z" transform="translate(-6199.867 -2514.563)" fill="#606060" stroke="#1a1a1a" stroke-width="2"/>
        <path id="Path_195" data-name="Path 195" d="M6261.333,2556.622a16.328,16.328,0,0,1-2.316,3.577,20.161,20.161,0,0,1-15.438,6.828,20.769,20.769,0,0,1-12.416-4,17.962,17.962,0,0,1-2.947-2.745l15.363-10.133Z" transform="translate(-6163.962 -2448.861)" fill="#606060" stroke="#1a1a1a" stroke-width="2"/>
        <path id="Path_196" data-name="Path 196" d="M6302.635,2409.938h49.5l1.131,3.614H6304.1Z" transform="translate(-6205.265 -2371.045)" fill="#fff" stroke="#1a1a1a" stroke-linecap="round" stroke-linejoin="round" stroke-width="2"/>
        <path id="Path_197" data-name="Path 197" d="M6296.333,2394.087h49.5l1.132,3.614H6297.8Z" transform="translate(-6201.766 -2362.247)" fill="#fff" stroke="#1a1a1a" stroke-linecap="round" stroke-linejoin="round" stroke-width="2"/>
        <path id="Path_198" data-name="Path 198" d="M6328.143,2512.472h49.5l1.131,3.614h-49.165Z" transform="translate(-6219.421 -2427.95)" fill="#fff" stroke="#1a1a1a" stroke-linecap="round" stroke-linejoin="round" stroke-width="2"/>
        <path id="Path_199" data-name="Path 199" d="M6364.24,2535.7h33.792l1.131,3.614h-33.456Z" transform="translate(-6239.455 -2440.839)" fill="#fff" stroke="#1a1a1a" stroke-linecap="round" stroke-linejoin="round" stroke-width="2"/>
        <path id="Path_200" data-name="Path 200" d="M6356.375,2643.865h49.5l1.131,3.614h-49.165Z" transform="translate(-6235.088 -2500.872)" fill="#fff" stroke="#1a1a1a" stroke-linecap="round" stroke-linejoin="round" stroke-width="2"/>
        <path id="Path_201" data-name="Path 201" d="M6350.073,2628.014h49.5l1.13,3.614h-49.165Z" transform="translate(-6231.591 -2492.075)" fill="#fff" stroke="#1a1a1a" stroke-linecap="round" stroke-linejoin="round" stroke-width="2"/>
      </g>
      <g id="Group_27" data-name="Group 27" transform="translate(200.986 107.993)">
        <path id="Path_202" data-name="Path 202" d="M6446.1,2410.624s-6.049,2.647-11.154,26.283-7.84,38.692-21.363,34.887c-15.648-4.4-21.174-6.713-21.174-6.713-6.825,2.8-10.817,6.9-8.317,14.749,0,0,18.244,22.313,34.88,21.178s25.726-28.956,25.726-28.956" transform="translate(-6355.829 -2343.005)" fill="#fff" stroke="#1a1a1a" stroke-linecap="round" stroke-linejoin="round" stroke-width="2"/>
        <path id="Path_203" data-name="Path 203" d="M6386.449,2550.275s7.291,1.711,9.813-3.607,1.884-9.856-.6-10.777-6.664,1.63-7.656,3.828S6382.9,2547.571,6386.449,2550.275Z" transform="translate(-6356.767 -2412.419)" fill="#1a1a1a" stroke="#1a1a1a" stroke-linecap="round" stroke-linejoin="round" stroke-width="2"/>
        <path id="Path_204" data-name="Path 204" d="M6359.893,2513.337s-7.09-6.565-9.359-13.352-6.144-8.11-7.467-8.2c-1.23,1.891,1.89,8.888,2.174,9.266s-4.538-4.633-10.587-6.524-13.139,0-13.139,0,.567,11.358,4.442,14.8,13.612,5.052,17.3,7.51,11.1,6.829,11.559,6.961C6358.346,2524.828,6363.232,2514.76,6359.893,2513.337Z" transform="translate(-6321.515 -2388.046)" fill="#fff" stroke="#1a1a1a" stroke-linecap="round" stroke-linejoin="round" stroke-width="2"/>
        <path id="Path_205" data-name="Path 205" d="M6600.522,2361.225c3.306-1.1,4.513-4.3,5.339-7.754l-14.484,1.23a19.582,19.582,0,0,1-2.308,5.941C6592.033,2363.381,6596.927,2362.3,6600.522,2361.225Z" transform="translate(-6470.004 -2311.286)" fill="#1a1a1a" stroke="#1a1a1a" stroke-linecap="round" stroke-linejoin="round" stroke-width="2"/>
        <path id="Path_206" data-name="Path 206" d="M6604.122,2365.6c-4.112-3.36-4.208-13.186-4.208-13.186l-5.557.471c-.825,3.45-2.032,6.652-5.339,7.754-3.6,1.079-8.489,2.156-11.453-.584a22.618,22.618,0,0,1-9.224,8.525s19.565,10.4,29.3,9.36,12.194-8.32,12.194-8.32S6608.231,2368.956,6604.122,2365.6Z" transform="translate(-6458.501 -2310.698)" fill="#fff" stroke="#1a1a1a" stroke-linecap="round" stroke-linejoin="round" stroke-width="2"/>
        <path id="Path_207" data-name="Path 207" d="M6519.915,2656.491c-1.195.4,2.784,4.774,1.989,5.172-15.794,3.51-31.585-2.893-43.282-13.466a183.129,183.129,0,0,0-7.393,39.4c-1.985,27.512,0,56.727,0,56.727l78.144,7.658s9.976-45.648,11.006-71.081c.244-6.043.3-10.8.25-14.54a116.554,116.554,0,0,1-24.007-6.292C6531.452,2658.083,6524.688,2654.1,6519.915,2656.491Z" transform="translate(-6404.115 -2474.856)" fill="#fff" stroke="#1a1a1a" stroke-linecap="round" stroke-linejoin="round" stroke-width="2"/>
        <path id="Path_208" data-name="Path 208" d="M6492.042,2627.826s-1.349,3.327-3.1,9.066c11.7,10.573,27.488,16.977,43.282,13.466.794-.4-3.182-4.775-1.989-5.172,4.773-2.387,11.537,1.591,16.707,3.581a116.518,116.518,0,0,0,24.006,6.292c-.17-12.006-1.488-13.556-1.488-13.556Z" transform="translate(-6414.436 -2463.55)" fill="#1a1a1a" stroke="#1a1a1a" stroke-linecap="round" stroke-linejoin="round" stroke-width="2"/>
        <path id="Path_209" data-name="Path 209" d="M6567.426,2384.917s15.729,12.3,37.45,1.941c4.52,11.389-13.062,53.935-13.062,53.935l-2.836,64.668s-15.881,4.917-25.522-4.916C6566.859,2476.53,6567.426,2384.917,6567.426,2384.917Z" transform="translate(-6455.789 -2328.738)" fill="#fff" stroke="#1a1a1a" stroke-linecap="round" stroke-linejoin="round" stroke-width="2"/>
        <path id="Path_210" data-name="Path 210" d="M6525.988,2380.455s-26.657,10.589-26.846,14.182c3.4,35.739-12.394,97.854-12.394,97.854s17.4,19,39.24,13.331C6532.794,2475.188,6535.914,2403.43,6525.988,2380.455Z" transform="translate(-6413.218 -2326.262)" fill="coral" stroke="#1a1a1a" stroke-linecap="round" stroke-linejoin="round" stroke-width="2"/>
        <path id="Path_211" data-name="Path 211" d="M6663.078,2513.786c-.8,8.415-1.4,17.041-1.858,25.269a59.294,59.294,0,0,1-12.88-7.265c-2.267-8.319,5.673-15.584,5.673-15.584A37.765,37.765,0,0,1,6663.078,2513.786Z" transform="translate(-6502.673 -2400.26)" fill="#fff" stroke="#1a1a1a" stroke-linecap="round" stroke-linejoin="round" stroke-width="2"/>
        <path id="Path_212" data-name="Path 212" d="M6648.119,2401.366q-.472,1.54-.915,3.219c-2.637,9.971-4.522,23.363-5.868,37.364-.008.1-.019.211-.032.314a37.739,37.739,0,0,0-9.064,2.419s-7.941,7.265-5.674,15.584a59.3,59.3,0,0,0,12.881,7.265c-.987,17.952-1.253,34-1.253,41.821a27.955,27.955,0,0,1-29.493-1.623s1.986-38.574,3.4-60.982,18.716-61.833,18.716-61.833S6636.492,2386.048,6648.119,2401.366Z" transform="translate(-6480.9 -2328.737)" fill="coral" stroke="#1a1a1a" stroke-linecap="round" stroke-linejoin="round" stroke-width="2"/>
        <path id="Path_213" data-name="Path 213" d="M6586.357,2259.451s-1.985,7.469,3.214,9.644,22.308,28.174,22.308,28.174l-3.962,6.089s2.733,3.271,7.695-.984,14.605-7.847,13.661-19.287c-1.985-8.981-5.673-10.589-8.509-9.832.756-7,.094-8.225-7-12.858s-19.851,1.7-23.63.378Z" transform="translate(-6468.293 -2258.676)" fill="#1a1a1a" stroke="#1a1a1a" stroke-linecap="round" stroke-linejoin="round" stroke-width="2"/>
        <path id="Path_214" data-name="Path 214" d="M6586.333,2281.526s-11.154,22.313-3.5,33,23.16.946,25.24-1.04l4.065-5.483s7.751-3.687,5.86-9.076-6.429-.756-6.429-.756l-2.741,2.32-1.985-.807s2.553-5.862.474-8.414-2.9-2.08-2.9-2.08.721-5.484-6.935-7.375S6590.493,2282.377,6586.333,2281.526Z" transform="translate(-6465.055 -2271.107)" fill="#fff" stroke="#1a1a1a" stroke-linecap="round" stroke-linejoin="round" stroke-width="2"/>
        <path id="Path_215" data-name="Path 215" d="M6571.112,2723.357s-1.139,10.356-3.062,28.363c-2.409,22.544-4.595,37.156-4.595,37.156" transform="translate(-6455.789 -2516.569)" fill="#fff" stroke="#1a1a1a" stroke-linecap="round" stroke-linejoin="round" stroke-width="2"/>
        <path id="Path_216" data-name="Path 216" d="M6688.418,2485.746c-2.152,9.76-13.9,11.674-27.2,6.319a59.3,59.3,0,0,1-12.88-7.266c-2.267-8.319,5.673-15.584,5.673-15.584a37.777,37.777,0,0,1,9.065-2.419,13.343,13.343,0,0,1,1.472-.056l-1.44-.259c1.345-14,3.229-27.393,5.867-37.364C6674.643,2440.735,6690.761,2475.119,6688.418,2485.746Z" transform="translate(-6502.673 -2353.269)" fill="#fff" stroke="#1a1a1a" stroke-linecap="round" stroke-linejoin="round" stroke-width="2"/>
        <path id="Path_217" data-name="Path 217" d="M6625.363,2514.663a22.1,22.1,0,0,1-5.937-4.68c-3.42-3.545-12.211-3.4-11.36-2.127s4.4,2.978,6.735,3.829c-10.705.993-15.242-3.545-15.242-3.545s-2.694,1.087-2.979,6.429,5.956,9.88,10.28,10.234,13.839,1.177,16.236,2.127C6627.326,2528.609,6628.2,2515.125,6625.363,2514.663Z" transform="translate(-6474.167 -2396.511)" fill="#fff" stroke="#1a1a1a" stroke-linecap="round" stroke-linejoin="round" stroke-width="2"/>
      </g>
      <path id="Path_218" data-name="Path 218" d="M6113.246,2775.179s123.736-36.588,240.855,37.439c55.015,34.036,74.481,70.2-27.558,116.573s-171.374,54.458-206.254,0S6051.331,2792.2,6113.246,2775.179Z" transform="translate(-5985.897 -2432.318)" fill="#fff" stroke="#1a1a1a" stroke-linecap="round" stroke-linejoin="round" stroke-width="2"/>
      <g id="Group_28" data-name="Group 28" transform="translate(139.167 338.191)">
        <path id="Path_219" data-name="Path 219" d="M6265.861,2810.876l53.029,26.557,25.806-38.366-53.88-23.106Z" transform="translate(-6228.809 -2775.96)" fill="#fff" stroke="#1a1a1a" stroke-linecap="round" stroke-linejoin="round" stroke-width="2"/>
        <path id="Path_220" data-name="Path 220" d="M6411.529,2830.67l-.7-2.787-25.806,38.367.83,2.879Z" transform="translate(-6294.945 -2804.777)" fill="#fff" stroke="#1a1a1a" stroke-linecap="round" stroke-linejoin="round" stroke-width="2"/>
        <path id="Path_221" data-name="Path 221" d="M6270.7,2885.826l-38.285,13.046-49.812-27.231,36.295-11.248Z" transform="translate(-6182.599 -2822.82)" fill="#fff" stroke="#1a1a1a" stroke-linecap="round" stroke-linejoin="round" stroke-width="2"/>
        <path id="Path_222" data-name="Path 222" d="M6270.7,2899.854v6.156l-38.285,13.046-49.812-27.226v-6.159l49.812,27.23Z" transform="translate(-6182.599 -2836.848)" fill="#fff" stroke="#1a1a1a" stroke-linecap="round" stroke-linejoin="round" stroke-width="2"/>
      </g>
      <g id="Group_29" data-name="Group 29" transform="translate(38.365 275.933)">
        <path id="Path_223" data-name="Path 223" d="M6137.533,2845.606s11.127-17.777,15.145-16.231,11.283,7.789,11.283,8.068-7.573,25.94-11.283,26.095S6137.533,2845.606,6137.533,2845.606Z" transform="translate(-6056.785 -2743.294)" fill="coral" stroke="#1a1a1a" stroke-linecap="round" stroke-linejoin="round" stroke-width="2"/>
        <path id="Path_224" data-name="Path 224" d="M6173.762,2808.973c.207-.309,8.244-12.366,12.519-15.355s12.416-5.462,14.683-5.462,2.576,4.329,1.648,9.172-9.891,8.863-13.6,10.923-8.553,8.245-8.553,8.245C6175.208,2816.6,6172.57,2814.445,6173.762,2808.973Z" transform="translate(-6076.735 -2720.471)" fill="#fff" stroke="#1a1a1a" stroke-linecap="round" stroke-linejoin="round" stroke-width="2"/>
        <path id="Path_225" data-name="Path 225" d="M6203.057,2809.9s3.915-6.8,7.727-7.317,7.419-4.574,5.256-5.173-4.019.638-6.8,1.05l-2.781.413" transform="translate(-6093.15 -2725.516)" fill="#fff" stroke="#1a1a1a" stroke-linecap="round" stroke-linejoin="round" stroke-width="2"/>
        <path id="Path_226" data-name="Path 226" d="M6240.792,2830.5s1.339-2.679-1.132-8.76-5.865-9.079-4.169-12.629,2.726-11.074,4.995-11.486,9.375,5.565,11.437,13.191-1.339,21.436-1.339,21.436Z" transform="translate(-6110.896 -2725.716)" fill="#fff" stroke="#1a1a1a" stroke-linecap="round" stroke-linejoin="round" stroke-width="2"/>
        <path id="Path_227" data-name="Path 227" d="M6244.57,2832.47s.567-8.84-2.266-11.9c-1.8-2.783-1.546-5.874.515-4.947s5.152,6.029,5.615,8.554a2.111,2.111,0,0,0,2.679,1.906" transform="translate(-6114.262 -2735.621)" fill="#fff" stroke="#1a1a1a" stroke-linecap="round" stroke-linejoin="round" stroke-width="2"/>
        <path id="Path_228" data-name="Path 228" d="M6013.337,2807.733s34.62,77.292,60.276,77.292,24.729-79.765,24.729-79.765,0-4.328-12.673-4.554c-6.8,1.938-11.128,24.96-15.456,49.693-4.018-8.965-30.292-103.57-72.022-99.242s-42.108,100.76-42.108,100.76c22.011,29.457,71.132,25.061,81.855,44.929.824,1.526,2.227-18.531,3.82-19.159-1.159-4.174-1.374-14.3-.883-20.5" transform="translate(-5956.083 -2699.857)" fill="coral" stroke="#1a1a1a" stroke-linecap="round" stroke-linejoin="round" stroke-width="2"/>
        <path id="Path_229" data-name="Path 229" d="M6037.045,2700.559a42.324,42.324,0,0,0,14.63-16.9c10.51-20.61,19.783-30.71,34.826-28.031,6.8,25.558,10.3,35.575-1.854,39.12l-9.273,1.69s-6.6,6.39-6.8,13.4C6060.331,2713.338,6037.045,2700.559,6037.045,2700.559Z" transform="translate(-6001.016 -2646.684)" fill="#fff" stroke="#1a1a1a" stroke-linecap="round" stroke-linejoin="round" stroke-width="2"/>
        <path id="Path_230" data-name="Path 230" d="M6060.282,2676.615s9.042,7.806,18.933,6.879c2.937-4.947,5.566-9.739,5.566-9.739s-3.866-3.092-1.394-9.739c3.555-4.792,6.956,2.01,6.956,2.01l1,2.4,2.551-.618s-.155-5.565,0-6.106,1.855-6.338,5.332-7.961,4.945-2.86,5.1-4.251l.154-1.391c.077-.7-3.555-5.857-5.486-5.672a7.974,7.974,0,0,0,6.3-2.212s-4.521.713-7.768-1.808-10.9-3.216-14.991-1.052c-5.95.309-11.129.927-11.051,6.492-7.032.7-11.359,10.357-11.668,19.555S6060.282,2676.615,6060.282,2676.615Z" transform="translate(-6013.615 -2636.059)" fill="#1a1a1a" stroke="#1a1a1a" stroke-linecap="round" stroke-linejoin="round" stroke-width="2"/>
      </g>
      <g id="Group_30" data-name="Group 30" transform="translate(226.583 358.27)">
        <path id="Path_231" data-name="Path 231" d="M6379.036,2955.718l37.489-14.556,51.379,34.585-35.487,17.816Z" transform="translate(-6379.036 -2887.725)" fill="#fff" stroke="#1a1a1a" stroke-linecap="round" stroke-linejoin="round" stroke-width="2"/>
        <path id="Path_232" data-name="Path 232" d="M6448.054,3038.617s-2.814-8.53-1.884-15.168,13.8-14.993,16.417-15.168l.175,12.4,2.1,3.668s-7.422,5.065-6.418,8.384S6448.054,3038.617,6448.054,3038.617Z" transform="translate(-6416.19 -2924.975)" fill="#fff" stroke="#1a1a1a" stroke-linecap="round" stroke-linejoin="round" stroke-width="2"/>
        <ellipse id="Ellipse_20" data-name="Ellipse 20" cx="11.016" cy="2.777" rx="11.016" ry="2.777" transform="translate(43.777 66.945)" fill="#fff" stroke="#1a1a1a" stroke-linecap="round" stroke-linejoin="round" stroke-width="2"/>
        <path id="Path_233" data-name="Path 233" d="M6477.409,2977.756h22.031l-.493,34.138c-1.747,5.59-16.069,5.357-19.211.616Z" transform="translate(-6433.632 -2908.034)" fill="#fff" stroke="#1a1a1a" stroke-linecap="round" stroke-linejoin="round" stroke-width="2"/>
        <path id="Path_234" data-name="Path 234" d="M6619.168,2903.14s2.795-17.546,1.922-23.135c-9.548-2.367-13.332-12.44-12.11-20.3s.27-11.534.27-11.534-4.4-8.437,2.757-15.074,35.278-7.162,34.4,18.166c-1.222,16.768-3.843,22.183-3.843,22.183l5.938,17.817S6622.947,2908.523,6619.168,2903.14Z" transform="translate(-6506.059 -2825.598)" fill="#fff" stroke="#1a1a1a" stroke-linecap="round" stroke-linejoin="round" stroke-width="2"/>
        <path id="Path_235" data-name="Path 235" d="M6519.583,3011.788c-3.726,12.83-25.381,54.942-42.612,49.586s-27.622-46.084-27.622-46.084,5.42-6.667,13.145-4.338c0,0,13.545,11.761,18.436,19.214,10.012-11.18,15.833-24.222,21.422-38.661s27.011-24.024,33.065-24.472c19.792-1.845,25.149-8.6,25.149-8.6s26.079,6.288,30.271,27.482-3.26,52.4,0,65.211l.555,4.571s-33.752,22.715-70.642,27.286c-3.725-17.468-8.983-53.366-8.316-54.656" transform="translate(-6418.058 -2897.31)" fill="#fff" stroke="#1a1a1a" stroke-linecap="round" stroke-linejoin="round" stroke-width="2"/>
        <path id="Path_236" data-name="Path 236" d="M6440.321,3067.649s-.176-4.8,7.074-5.939,9.431,1.572,9.431,1.572l2.794,4.833s-14.758,1.194-14.409,8.355A45.372,45.372,0,0,1,6440.321,3067.649Z" transform="translate(-6413.048 -2954.473)" fill="coral" stroke="#1a1a1a" stroke-linecap="round" stroke-linejoin="round" stroke-width="2"/>
        <path id="Path_237" data-name="Path 237" d="M6605.7,2838.361s2.619,8.3,6.461,9.695l1.311,5.24,1.92,1.136s1.135-6.638,5.24-5.5,1.745,11.091-2.1,11.616c-.7,4.279-4.395,13.275,6.9,14.672s16.766-2.911,17.813-6.289,14.146-26.725,4.716-37.555-21.132-11-25.149-9.781S6605,2824.387,6605.7,2838.361Z" transform="translate(-6504.82 -2821.082)" fill="#1a1a1a" stroke="#1a1a1a" stroke-linecap="round" stroke-linejoin="round" stroke-width="2"/>
        <path id="Path_238" data-name="Path 238" d="M6670.75,2854.328s-.232-10.248,7.685-11.3l3.725,1.98s-8.964-.583-8.267,13.624A7.523,7.523,0,0,1,6670.75,2854.328Z" transform="translate(-6540.934 -2833.264)" fill="#fff" stroke="#1a1a1a" stroke-linecap="round" stroke-linejoin="round" stroke-width="2"/>
        <path id="Path_239" data-name="Path 239" d="M6674.467,2845.532s15.225-7.383,23.492,2.282,5.123,22.125,1.513,33.537-17.5,48.792-15.642,60.438c-7.684-14.207-20.1-41.921-19.636-56.594a76,76,0,0,1,6.054-26.667l-1.076-6.521Z" transform="translate(-6537.288 -2833.155)" fill="#1a1a1a" stroke="#1a1a1a" stroke-linecap="round" stroke-linejoin="round" stroke-width="2"/>
      </g>
      <g id="Group_31" data-name="Group 31" transform="translate(361.391 70.788)">
        <path id="Path_240" data-name="Path 240" d="M6750.141,2175.071h-44.608a23.569,23.569,0,0,0-23.566,23.571v.25a23.569,23.569,0,0,0,21.377,23.466c-.729,2.8-1.665,6.24-2.524,9.365a2.751,2.751,0,0,0,4.441,2.822l14.113-12.081h30.768a23.569,23.569,0,0,0,23.567-23.571v-.25A23.569,23.569,0,0,0,6750.141,2175.071Z" transform="translate(-6681.967 -2175.071)" fill="#fff" stroke="#1a1a1a" stroke-linecap="round" stroke-linejoin="round" stroke-width="2"/>
        <ellipse id="Ellipse_21" data-name="Ellipse 21" cx="4.12" cy="4.12" rx="4.12" ry="4.12" transform="translate(20.329 18.219)" fill="#fff" stroke="#1a1a1a" stroke-linecap="round" stroke-linejoin="round" stroke-width="2"/>
        <ellipse id="Ellipse_22" data-name="Ellipse 22" cx="4.12" cy="4.12" rx="4.12" ry="4.12" transform="translate(43.291 18.219)" fill="#fff" stroke="#1a1a1a" stroke-linecap="round" stroke-linejoin="round" stroke-width="2"/>
        <ellipse id="Ellipse_23" data-name="Ellipse 23" cx="4.12" cy="4.12" rx="4.12" ry="4.12" transform="translate(66.759 18.219)" fill="#fff" stroke="#1a1a1a" stroke-linecap="round" stroke-linejoin="round" stroke-width="2"/>
      </g>
      <ellipse id="Ellipse_24" data-name="Ellipse 24" cx="30.26" cy="30.02" rx="30.26" ry="30.02" transform="translate(443.39 381.687)" fill="#fff" stroke="#1a1a1a" stroke-linecap="round" stroke-linejoin="round" stroke-width="2"/>
      <ellipse id="Ellipse_25" data-name="Ellipse 25" cx="24.535" cy="24.341" rx="24.535" ry="24.341" transform="translate(0 175.637)" fill="#fff" stroke="#1a1a1a" stroke-linecap="round" stroke-linejoin="round" stroke-width="2"/>
    </g>
  </g>
</svg>
