<svg xmlns="http://www.w3.org/2000/svg" xmlns:xlink="http://www.w3.org/1999/xlink" width="140" height="140" viewBox="0 0 140 140">
  <defs>
    <clipPath id="clip-path">
      <rect id="Rectangle_326" data-name="Rectangle 326" width="140" height="140" transform="translate(1265 2667)" fill="#ff5e5e"/>
    </clipPath>
  </defs>
  <g id="icon" transform="translate(-1265 -2667)" clip-path="url(#clip-path)">
    <g id="Group_156" data-name="Group 156" transform="translate(0 -4)">
      <g id="noun_quality_assurance_1327175" data-name="noun_quality assurance_1327175" transform="translate(1287.998 2694)">
        <g id="Group_155" data-name="Group 155" transform="translate(0 0)">
          <g id="Group_144" data-name="Group 144">
            <path id="Path_602" data-name="Path 602" d="M76.767,78.476A1.346,1.346,0,0,0,75.342,79.9v9.969a2.461,2.461,0,0,1-2.706,2.279H6.554a2.549,2.549,0,0,1-2.706-2.279v-70.5a2.549,2.549,0,0,1,2.706-2.279h12.39v4.13a1.346,1.346,0,0,0,1.424,1.424H58.679A1.346,1.346,0,0,0,60.1,21.223v-4.13H72.636a2.549,2.549,0,0,1,2.706,2.279v6.266a1.424,1.424,0,1,0,2.848,0V19.372a5.3,5.3,0,0,0-5.554-5.127H60.1V10.827A1.346,1.346,0,0,0,58.679,9.4H53.268V8.263C53.268,4.276,49.707,1,45.292,1H33.9c-4.415,0-7.975,3.276-7.975,7.263v1H20.511a1.346,1.346,0,0,0-1.424,1.424V14.1H6.554A5.391,5.391,0,0,0,1,19.23v70.5a5.3,5.3,0,0,0,5.554,5.127H72.636a5.391,5.391,0,0,0,5.554-5.127V79.757A1.405,1.405,0,0,0,76.767,78.476ZM28.772,8.263c0-2.421,2.279-4.415,5.127-4.415H45.292c2.848,0,5.127,1.994,5.127,4.415v1H28.772Zm28.484,3.988v7.691H21.793V12.251Z" transform="translate(-1 -1)" fill="#010101"/>
          </g>
          <g id="Group_147" data-name="Group 147" transform="translate(42.959 60.866)">
            <path id="Path_605" data-name="Path 605" d="M40.33,43.827a1.482,1.482,0,0,0-1.851.855L31.215,66.044a1.635,1.635,0,0,0,.57,1.709,1.493,1.493,0,0,0,1.709-.142l5.269-4.842,1.282,7.121a1.393,1.393,0,0,0,2.706.142l6.836-19.369a1.442,1.442,0,0,0-2.706-1L41.754,63.908l-.712-4.273a1.38,1.38,0,0,0-1-1.139,1.754,1.754,0,0,0-1.424.285l-3.133,2.848,5.7-16.093A1.276,1.276,0,0,0,40.33,43.827Z" transform="translate(-31.164 -43.737)" fill="#010101"/>
          </g>
          <g id="Group_148" data-name="Group 148" transform="translate(74.68 60.785)">
            <path id="Path_606" data-name="Path 606" d="M72.611,65.5,64.066,44.563A1.4,1.4,0,1,0,61.5,45.7l6.409,15.808L64.635,58.8a1.31,1.31,0,0,0-1.424-.142,1.241,1.241,0,0,0-.854,1.139l-.427,4.13-5.7-14.242a1.442,1.442,0,0,0-2.706,1L61.36,70.056a1.435,1.435,0,0,0,1.567.855,1.511,1.511,0,0,0,1.282-1.282l.855-7.121,5.554,4.557a1.3,1.3,0,0,0,1.709,0A1.261,1.261,0,0,0,72.611,65.5Z" transform="translate(-53.437 -43.68)" fill="#010101"/>
          </g>
          <g id="Group_149" data-name="Group 149" transform="translate(55.258 33.041)">
            <path id="Path_607" data-name="Path 607" d="M39.8,37.16A13.007,13.007,0,0,0,52.76,50.12h0A12.96,12.96,0,1,0,39.8,37.16Zm23.214,0A10.151,10.151,0,0,1,52.9,47.272h0A10.112,10.112,0,1,1,63.014,37.16Z" transform="translate(-39.8 -24.2)" fill="coral"/>
          </g>
          <g id="Group_150" data-name="Group 150" transform="translate(45.859 23.641)">
            <path id="Path_608" data-name="Path 608" d="M56.272,18.027a1.538,1.538,0,0,0-1-.427,1.293,1.293,0,0,0-1,.427l-3.7,3.845-5.127-1.282a1.607,1.607,0,0,0-1.139.142,2.093,2.093,0,0,0-.712.855l-1.139,4.7-4.7,1a1.562,1.562,0,0,0-1.139,1.709L37.9,34.975,33.627,39.39a1.377,1.377,0,0,0,0,1.994l3.845,3.7-1.282,5.127a1.465,1.465,0,0,0,1,1.709l4.7,1.139,1,4.7a1.308,1.308,0,0,0,.57.855,1.513,1.513,0,0,0,1.139.142l5.982-1.282L54.99,61.75a1.293,1.293,0,0,0,1,.427h0a1.293,1.293,0,0,0,1-.427l3.7-3.845,5.127,1.282a1.607,1.607,0,0,0,1.139-.142,2.093,2.093,0,0,0,.712-.855l1.139-4.7,4.7-1a1.562,1.562,0,0,0,1.139-1.709L73.362,44.8l4.273-4.415a1.377,1.377,0,0,0,0-1.994l-3.845-3.7,1.282-5.127a1.465,1.465,0,0,0-1-1.709l-4.842-1.139-1-4.7a1.308,1.308,0,0,0-.57-.855,1.513,1.513,0,0,0-1.139-.142L60.544,22.3Zm10.4,10.112a1.628,1.628,0,0,0,1,1.139l4.13,1-1.139,4.557a1.445,1.445,0,0,0,.427,1.424L74.5,39.532l-3.845,3.845a1.988,1.988,0,0,0-.427,1.282l1.139,5.269-4.13.855a1.628,1.628,0,0,0-1.139,1l-1,4.13-4.557-1.139a1.366,1.366,0,0,0-1.424.427l-3.276,3.418L52,54.771a1.293,1.293,0,0,0-1-.427h-.285l-5.269,1.139-.855-4.13a1.628,1.628,0,0,0-1-1.139l-4.13-1,1.139-4.557a1.445,1.445,0,0,0-.427-1.424L36.76,39.96l3.845-3.845a1.988,1.988,0,0,0,.427-1.282l-1.139-5.269,4.13-.855a1.628,1.628,0,0,0,1.139-1l1-4.13,4.557,1.139a1.445,1.445,0,0,0,1.424-.427l3.276-3.418,3.845,3.845a1.988,1.988,0,0,0,1.282.427l5.269-1.139Z" transform="translate(-33.2 -17.6)" fill="#010101"/>
          </g>
          <g id="Group_151" data-name="Group 151" transform="translate(60.849 40.874)">
            <path id="Path_609" data-name="Path 609" d="M43.974,34.827l3.988,5.554a1.442,1.442,0,0,0,1,.57H49.1a1.293,1.293,0,0,0,1-.427l7.833-8.4a1.41,1.41,0,0,0-1.994-1.994l-6.694,7.121-2.991-4.13a1.532,1.532,0,0,0-1.994-.285A1.552,1.552,0,0,0,43.974,34.827Z" transform="translate(-43.726 -29.7)" fill="coral"/>
          </g>
          <g id="Group_152" data-name="Group 152" transform="translate(7.121 59.673)">
            <path id="Path_610" data-name="Path 610" d="M6,44.324a1.346,1.346,0,0,0,1.424,1.424h30.05a1.424,1.424,0,1,0,0-2.848H7.424A1.427,1.427,0,0,0,6,44.324Z" transform="translate(-6 -42.9)" fill="#010101"/>
          </g>
          <g id="Group_153" data-name="Group 153" transform="translate(7.263 69.643)">
            <path id="Path_611" data-name="Path 611" d="M7.524,52.748h30.05a1.424,1.424,0,1,0,0-2.848H7.524a1.424,1.424,0,1,0,0,2.848Z" transform="translate(-6.1 -49.9)" fill="#010101"/>
          </g>
          <g id="Group_154" data-name="Group 154" transform="translate(7.263 79.612)">
            <path id="Path_612" data-name="Path 612" d="M7.524,59.748h30.05a1.424,1.424,0,0,0,0-2.848H7.524A1.346,1.346,0,0,0,6.1,58.324,1.427,1.427,0,0,0,7.524,59.748Z" transform="translate(-6.1 -56.9)" fill="#010101"/>
          </g>
          <rect id="Rectangle_23" data-name="Rectangle 23" width="23" height="22" transform="translate(8.002 30)" fill="coral"/>
        </g>
      </g>
      <path id="Path_613" data-name="Path 613" d="M43.974,34.827l3.988,5.554a1.442,1.442,0,0,0,1,.57H49.1a1.293,1.293,0,0,0,1-.427l7.833-8.4a1.41,1.41,0,0,0-1.994-1.994l-6.694,7.121-2.991-4.13a1.532,1.532,0,0,0-1.994-.285A1.552,1.552,0,0,0,43.974,34.827Z" transform="translate(1256.298 2699.276)" fill="#fff"/>
    </g>
  </g>
</svg>
