<svg xmlns="http://www.w3.org/2000/svg" width="16.141" height="15.226" viewBox="0 0 16.141 15.226">
  <path id="Icon_ionic-md-arrow-round-back" data-name="Icon ionic-md-arrow-round-back" d="M7.024,12.475H16.84L13.033,8.833a1.517,1.517,0,0,1,0-2.073,1.356,1.356,0,0,1,1.981,0l6.339,6.146a1.4,1.4,0,0,1,.413,1.027v.018a1.4,1.4,0,0,1-.413,1.027l-6.334,6.146a1.356,1.356,0,0,1-1.981,0,1.517,1.517,0,0,1,0-2.073l3.807-3.642H7.029a1.436,1.436,0,0,1-1.4-1.468A1.421,1.421,0,0,1,7.024,12.475Z" transform="translate(-5.625 -6.33)" fill="#343434"/>
</svg>
