<svg xmlns="http://www.w3.org/2000/svg" width="16.141" height="15.226" viewBox="0 0 16.141 15.226">
  <path id="Icon_ionic-md-arrow-round-back" data-name="Icon ionic-md-arrow-round-back" d="M20.367,12.475H10.551l3.807-3.642a1.517,1.517,0,0,0,0-2.073,1.356,1.356,0,0,0-1.981,0L6.038,12.906a1.4,1.4,0,0,0-.413,1.027v.018a1.4,1.4,0,0,0,.413,1.027l6.334,6.146a1.356,1.356,0,0,0,1.981,0,1.517,1.517,0,0,0,0-2.073L10.547,15.41h9.816a1.436,1.436,0,0,0,1.4-1.468A1.421,1.421,0,0,0,20.367,12.475Z" transform="translate(-5.625 -6.33)" fill="#343434"/>
</svg>
